<?xml version="1.0" encoding="UTF-8"?>
<svg width="72px" height="72px" viewBox="0 0 72 72" version="1.1" xmlns="http://www.w3.org/2000/svg" xmlns:xlink="http://www.w3.org/1999/xlink">
    <!-- Generator: Sketch 48.1 (47250) - http://www.bohemiancoding.com/sketch -->
    <title>logo/yellow</title>
    <desc>Created with Sketch.</desc>
    <defs></defs>
    <g id="Symbols" stroke="none" stroke-width="1" fill="none" fill-rule="evenodd">
        <g id="logo/yellow">
            <g id="gymbox-logo">
                <path d="M57.7530769,34.1515385 L53.8907692,34.1515385 L53.8907692,19.6623077 C53.8907692,18.4861538 52.9230769,17.5746154 51.8538462,17.5746154 L51.8538462,34.1515385 L47.9923077,34.1515385 L47.9923077,17.5746154 L45.9538462,17.5746154 L45.9538462,34.1515385 L42.0892308,34.1515385 L42.0892308,13.9192308 L51.8792308,13.9192308 C55.1169231,13.9192308 57.7538462,16.5538462 57.7538462,19.7923077 L57.7538462,34.1515385 L57.7530769,34.1515385 Z" id="Path" fill="#FFFFFF"></path>
                <polygon id="Path" fill="#FFFFFF" points="60.3446154 14.6 59.56 14.6 59.56 16.8623077 58.6676923 16.8623077 58.6676923 14.6 57.8823077 14.6 57.8823077 13.9223077 60.3446154 13.9223077"></polygon>
                <polygon id="Path" fill="#FFFFFF" points="52.9507692 58.0830769 50.5746154 51.8207692 48.1976923 58.0830769 44.0230769 58.0830769 48.4607692 47.9030769 44.0753846 37.8538462 48.2507692 37.8538462 50.5746154 43.9869231 52.8984615 37.8538462 57.0761538 37.8538462 52.69 47.9030769 57.13 58.0830769"></polygon>
                <path d="M40.9838462,52.6007692 C40.9838462,55.84 38.3469231,58.4738462 35.1130769,58.4738462 C31.8753846,58.4738462 29.2392308,55.84 29.2392308,52.6007692 L29.2392308,43.3338462 C29.2392308,40.0976923 31.8753846,37.4607692 35.1130769,37.4607692 C38.3476923,37.4607692 40.9838462,40.0976923 40.9838462,43.3338462 L40.9838462,52.6007692 Z M35.1123077,41.2961538 C34.0384615,41.2961538 33.1523077,42.1838462 33.1523077,43.2553846 L33.1523077,52.6784615 C33.1523077,53.7515385 34.0384615,54.6330769 35.1123077,54.6330769 C36.1830769,54.6330769 37.0676923,53.7515385 37.0676923,52.6784615 L37.0676923,43.2553846 C37.0684615,42.1846154 36.1830769,41.2961538 35.1123077,41.2961538 Z" id="Combined-Shape" fill="#FFFFFF"></path>
                <path d="M26.0946154,52.2084615 C26.0946154,55.4476923 23.4592308,58.0830769 20.2238462,58.0830769 L14.35,58.0830769 L14.35,37.8546154 L20.0915385,37.8546154 C23.3292308,37.8546154 25.9646154,40.4884615 25.9646154,43.7261538 L25.9646154,43.9861538 C25.9646154,45.3969231 25.13,47.2223077 23.6969231,47.8230769 C25.1584615,48.3984615 26.0946154,50.3261538 26.0946154,51.8192308 L26.0946154,52.2084615 Z M22.1261538,43.7784615 C22.1261538,42.3692308 21.1630769,41.4284615 20.0915385,41.4284615 L18.2653846,41.4284615 L18.2653846,46.1053846 L20.0915385,46.1053846 C21.1630769,46.1053846 22.1261538,45.1876923 22.1261538,43.7784615 Z M20.2238462,49.7038462 L18.2661538,49.7038462 L18.2661538,54.5053846 L20.2238462,54.5053846 C21.2930769,54.5053846 22.2623077,53.5661538 22.2623077,52.0261538 C22.2623077,50.6169231 21.2923077,49.7038462 20.2238462,49.7038462 Z" id="Combined-Shape" fill="#FFFFFF"></path>
                <polygon id="Path" fill="#FFFFFF" points="64.4338462 16.8623077 63.65 16.8623077 63.65 14.9338462 63.6353846 14.9338462 63.0007692 16.8623077 62.37 16.8623077 61.74 14.9338462 61.7238462 14.9338462 61.7238462 16.8623077 60.9384615 16.8623077 60.9384615 13.9223077 62.0538462 13.9223077 62.6869231 15.6253846 63.3223077 13.9223077 64.4330769 13.9223077 64.4330769 16.8623077"></polygon>
                <path d="M28.1153846,13.92 L32.0315385,13.92 L32.0315385,21.7 C32.0315385,22.7646154 32.9169231,23.6546154 33.9907692,23.6546154 C35.0592308,23.6546154 35.9461538,22.7646154 35.9461538,21.7 L35.9461538,13.92 L39.8630769,13.92 L39.8630769,21.6207692 C39.8630769,24.1769231 38.2161538,26.3446154 35.9461538,27.1523077 L35.9461538,34.1515385 L32.0315385,34.1515385 L32.0315385,27.1523077 C29.7623077,26.3446154 28.1153846,24.1761538 28.1153846,21.6207692 L28.1153846,13.92 L28.1153846,13.92 Z" id="Path" fill="#FFFFFF"></path>
                <path d="M14.2476923,19.3976923 C14.2476923,16.1615385 16.8823077,13.5253846 20.1184615,13.5253846 C23.3576923,13.5253846 25.9930769,16.1615385 25.9930769,19.3976923 L25.9930769,20.8884615 L22.0769231,20.8884615 L22.0769231,19.3230769 C22.0769231,18.25 21.1884615,17.3638462 20.1184615,17.3638462 C19.0492308,17.3638462 18.1607692,18.25 18.1607692,19.3230769 L18.1607692,28.7461538 C18.1607692,29.8161538 19.05,30.7038462 20.1184615,30.7038462 C21.2669231,30.7038462 22.2053846,30.0007692 22.2053846,28.69 L22.2053846,25.7946154 L19.4676923,25.7946154 L19.4676923,22.0876923 L25.9923077,22.0876923 L25.9923077,28.67 C25.9923077,31.9030769 23.3569231,34.5415385 20.1176923,34.5415385 C16.8815385,34.5415385 14.2469231,31.9023077 14.2469231,28.67 L14.2469231,19.3976923 L14.2476923,19.3976923 Z" id="Path" fill="#FFFFFF"></path>
                <rect id="Rectangle-2" stroke="#FFFFFF" stroke-width="4" x="2" y="2" width="68" height="68"></rect>
            </g>
        </g>
    </g>
</svg>